<?xml version="1.0" standalone="no"?>
<!DOCTYPE svg PUBLIC "-//W3C//DTD SVG 20010904//EN"
 "http://www.w3.org/TR/2001/REC-SVG-20010904/DTD/svg10.dtd">
<svg version="1.0" xmlns="http://www.w3.org/2000/svg"
 width="500.000000pt" height="500.000000pt" viewBox="0 0 500.000000 500.000000"
 preserveAspectRatio="xMidYMid meet">

<g transform="translate(0.000000,500.000000) scale(0.100000,-0.100000)"
fill="#000000" stroke="none">
<path d="M2464 4382 c-75 -70 -313 -200 -474 -259 -263 -97 -582 -177 -864
-218 -55 -8 -102 -19 -106 -26 -24 -37 -24 -1158 0 -1339 22 -170 89 -397 171
-576 10 -24 19 -46 19 -49 0 -15 140 -261 200 -351 212 -316 500 -582 840
-776 99 -56 231 -118 253 -118 21 0 229 105 317 160 341 212 601 470 814 805
147 231 300 618 335 845 20 127 31 369 30 685 0 310 -12 712 -22 721 -5 5
-100 23 -167 30 -121 15 -454 93 -629 148 -263 83 -513 204 -644 313 -34 28
-47 29 -73 5z m356 -893 c0 -157 3 -288 6 -291 3 -4 33 10 67 29 185 107 251
146 337 196 73 43 98 53 107 44 16 -17 313 -534 313 -546 0 -5 -110 -74 -245
-152 -135 -78 -245 -145 -245 -148 0 -4 107 -68 237 -143 131 -74 241 -142
246 -149 6 -10 -41 -99 -147 -284 -86 -148 -160 -271 -165 -273 -8 -3 -330
177 -462 257 -19 11 -38 21 -42 21 -4 0 -6 -131 -5 -290 l3 -290 -327 0 -328
0 0 290 0 291 -32 -17 c-18 -9 -129 -73 -247 -141 -118 -68 -219 -122 -226
-120 -6 3 -31 40 -56 83 -25 44 -96 167 -157 274 -62 107 -109 197 -104 201 8
8 375 221 444 258 26 15 48 28 48 31 0 3 -28 22 -62 42 -223 128 -433 250
-436 252 -2 3 31 62 247 438 69 120 74 127 94 116 23 -12 383 -219 450 -258
l37 -22 0 289 c0 159 2 292 4 294 2 2 149 4 325 4 l321 0 0 -286z"/>
<path d="M2200 3439 c0 -237 -3 -300 -12 -296 -7 2 -123 68 -257 146 -134 78
-248 140 -253 139 -5 -2 -46 -66 -90 -143 -44 -77 -107 -185 -139 -241 -32
-55 -59 -105 -59 -111 0 -9 104 -72 433 -261 42 -24 77 -47 77 -51 0 -6 -131
-83 -374 -222 -70 -40 -130 -78 -133 -85 -2 -6 18 -49 44 -95 27 -46 91 -157
143 -246 51 -90 96 -163 99 -163 3 0 121 67 261 149 l255 148 5 -301 5 -301
293 -3 292 -2 0 300 c0 221 3 300 12 300 10 0 97 -49 401 -227 60 -35 112 -63
115 -63 6 1 281 475 290 499 1 4 -112 74 -253 156 -141 81 -257 151 -259 154
-2 3 112 74 255 156 181 105 257 154 254 164 -5 13 -273 481 -282 491 -5 5
-70 -30 -319 -176 -108 -63 -201 -114 -205 -114 -5 0 -9 135 -9 300 l0 300
-295 0 -295 0 0 -301z m349 124 l24 -16 -6 -276 -7 -276 29 -17 c87 -49 85
-151 -5 -256 l-35 -41 -2 -141 c-2 -124 0 -141 15 -146 24 -7 58 -66 58 -100
0 -30 -27 -83 -63 -121 -18 -20 -21 -39 -25 -153 -3 -109 -2 -132 12 -145 23
-23 20 -77 -6 -111 -14 -16 -22 -40 -21 -58 l2 -31 -8 30 c-4 17 -5 36 -1 43
9 18 -12 126 -28 145 -21 25 -42 105 -42 158 0 33 9 64 29 102 16 31 28 57 26
59 -5 6 -14 82 -15 126 0 24 -4 41 -8 38 -13 -8 -69 54 -86 96 -31 72 -19 130
42 213 l37 50 -3 98 c-2 68 -7 97 -16 97 -18 0 -94 77 -127 128 -55 88 -63
224 -16 294 27 40 82 78 112 78 21 0 23 4 22 51 -2 44 2 54 26 75 33 28 54 30
86 7z"/>
<path d="M2389 3321 c-26 -26 -29 -36 -29 -91 0 -42 6 -73 21 -103 21 -41 58
-81 66 -73 9 9 -10 296 -19 296 -5 0 -23 -13 -39 -29z"/>
<path d="M2450 2575 c-17 -21 -16 -59 4 -86 15 -23 16 -22 16 39 0 34 -2 62
-4 62 -2 0 -9 -7 -16 -15z"/>
<path d="M2480 2013 c0 -27 5 -55 10 -63 7 -11 10 3 10 48 0 35 -4 62 -10 62
-5 0 -10 -21 -10 -47z"/>
</g>
</svg>
